<?xml version="1.0" encoding="UTF-8" standalone="no"?>
<!-- Created with Inkscape (http://www.inkscape.org/) -->

<svg
   width="40mm"
   height="40mm"
   viewBox="0 0 40 40"
   version="1.1"
   id="svg5"
   inkscape:version="1.1.2 (b8e25be833, 2022-02-05)"
   inkscape:export-xdpi="81.279999"
   inkscape:export-ydpi="81.279999"
   sodipodi:docname="open.svg"
   xmlns:inkscape="http://www.inkscape.org/namespaces/inkscape"
   xmlns:sodipodi="http://sodipodi.sourceforge.net/DTD/sodipodi-0.dtd"
   xmlns="http://www.w3.org/2000/svg"
   xmlns:svg="http://www.w3.org/2000/svg">
  <sodipodi:namedview
     id="namedview7"
     pagecolor="#ffffff"
     bordercolor="#666666"
     borderopacity="1.0"
     inkscape:pageshadow="2"
     inkscape:pageopacity="0.0"
     inkscape:pagecheckerboard="0"
     inkscape:document-units="px"
     showgrid="false"
     inkscape:zoom="1.1251878"
     inkscape:cx="71.543613"
     inkscape:cy="93.317755"
     inkscape:window-width="1920"
     inkscape:window-height="1017"
     inkscape:window-x="-8"
     inkscape:window-y="-8"
     inkscape:window-maximized="1"
     inkscape:current-layer="layer2" />
  <defs
     id="defs2" />
  <g
     inkscape:groupmode="layer"
     id="layer2"
     inkscape:label="Layer 2"
     style="display:inline">
    <path
       id="rect44"
       style="fill:#e1e5e7;stroke:#000000;stroke-width:0.233082;stroke-linejoin:round"
       d="M 25.267008,3.1048057 H 9.6437918 c -1.5551526,0 -2.8070695,1.1882399 -2.8070695,2.6642908 V 34.673099 c 0,1.476051 1.2519169,2.66429 2.8070695,2.66429 H 31.00689 c 1.555155,0 2.807182,-1.188239 2.807182,-2.66429 V 11.375705"
       sodipodi:nodetypes="cssssssc" />
    <g
       id="g13107"
       transform="matrix(0.17797875,0,0,0.17871029,3.1511798,0.77094847)">
      <rect
         style="fill:#526d80;fill-opacity:1;stroke:#000000;stroke-width:1.14805;stroke-linejoin:round;stroke-miterlimit:4;stroke-dasharray:none"
         id="rect1004"
         width="127.49346"
         height="64.606659"
         x="33.074024"
         y="115.88536"
         ry="7.4716983" />
    </g>
    <path
       id="rect1229"
       style="fill:#afb7be;fill-opacity:1;stroke:#000000;stroke-width:0.194123;stroke-linejoin:round;stroke-miterlimit:4;stroke-dasharray:none"
       d="m 33.814072,11.375705 h -5.680261 c -1.439958,0 -2.599206,-1.139137 -2.599206,-2.5541189 v -5.69806 z"
       sodipodi:nodetypes="csscc" />
    <g
       aria-label="DCM"
       id="text13969"
       style="font-weight:bold;font-size:32.9356px;line-height:1.25;font-family:'Helvetica Neue';-inkscape-font-specification:'Helvetica Neue, Bold';fill:#ffffff;fill-opacity:1;stroke-width:0.343079"
       transform="matrix(0.23101325,0,0,0.30661706,1.099293,-18.449041)">
      <path
         d="m 48.642355,156.25936 v -14.82102 h 3.688788 q 1.910264,0 3.194753,0.5599 1.317424,0.52697 2.107878,1.54798 0.790455,1.021 1.119811,2.47017 0.362291,1.41623 0.362291,3.19475 0,1.9432 -0.494034,3.29356 -0.494034,1.35036 -1.317424,2.20668 -0.82339,0.82339 -1.877329,1.18569 -1.053939,0.36229 -2.17375,0.36229 z m -5.170889,-19.16852 v 23.51602 h 10.144165 q 2.700719,0 4.676855,-0.88926 2.009072,-0.9222 3.326496,-2.50311 1.35036,-1.58091 2.009072,-3.75466 0.658712,-2.17375 0.658712,-4.74272 0,-2.93127 -0.82339,-5.10502 -0.790455,-2.17375 -2.239621,-3.62292 -1.416231,-1.44916 -3.392367,-2.17375 -1.943201,-0.72458 -4.215757,-0.72458 z"
         id="path16035"
         style="fill:#ffffff;fill-opacity:1" />
      <path
         d="m 85.44869,144.99538 h 5.006212 q -0.23055,-2.042 -1.119811,-3.62291 -0.889261,-1.58091 -2.272556,-2.63485 -1.35036,-1.08688 -3.095947,-1.64678 -1.712651,-0.55991 -3.655851,-0.55991 -2.70072,0 -4.874469,0.95514 -2.140814,0.95513 -3.622916,2.63484 -1.482102,1.67972 -2.272557,3.95228 -0.790454,2.23962 -0.790454,4.87446 0,2.56898 0.790454,4.8086 0.790455,2.20669 2.272557,3.85347 1.482102,1.64678 3.622916,2.60191 2.173749,0.9222 4.874469,0.9222 2.173749,0 3.985207,-0.65872 1.811458,-0.65871 3.161818,-1.91026 1.35036,-1.25155 2.17375,-3.03008 0.82339,-1.77852 1.021003,-3.9852 h -5.006211 q -0.29642,2.37136 -1.64678,3.82053 -1.317424,1.44916 -3.688787,1.44916 -1.745587,0 -2.964204,-0.65871 -1.218618,-0.69165 -1.976136,-1.81146 -0.757519,-1.11981 -1.119811,-2.5031 -0.329356,-1.41623 -0.329356,-2.89834 0,-1.54797 0.329356,-2.99713 0.362292,-1.44917 1.119811,-2.56898 0.757518,-1.15275 1.976136,-1.81146 1.218617,-0.69165 2.964204,-0.69165 0.955132,0 1.811458,0.32936 0.889261,0.29642 1.580909,0.85632 0.691647,0.55991 1.152746,1.31743 0.461098,0.72458 0.59284,1.61384 z"
         id="path16039"
         style="fill:#ffffff;fill-opacity:1" />
      <path
         d="m 96.372866,137.09084 v 23.51602 h 4.841534 v -16.50074 h 0.0659 l 5.76373,16.50074 h 3.98521 l 5.76373,-16.66542 h 0.0659 v 16.66542 h 4.84154 v -23.51602 h -7.27877 l -5.20383,16.17138 h -0.0659 l -5.50024,-16.17138 z"
         id="path16043"
         style="fill:#ffffff;fill-opacity:1" />
    </g>
  </g>
</svg>
