<svg id="color" enable-background="new 0 0 24 24" height="512" viewBox="0 0 24 24" width="512" xmlns="http://www.w3.org/2000/svg"><path d="m10 0 10 4-10 4-10-4z" fill="#4caf50"/><path d="m0 4 10 4v12l-10-4z" fill="#81c784"/><path d="m10 20 10-4v-12l-10 4z" fill="#66bb6a"/><path d="m10 0-10 4 10 4z" fill="#429846"/><path d="m0 4v12l10 4v-12z" fill="#70ad73"/><path d="m17 13.5c-1.93 0-3.5 1.57-3.5 3.5s1.57 3.5 3.5 3.5 3.5-1.57 3.5-3.5-1.57-3.5-3.5-3.5z" fill="#fff"/><path d="m23.707 22.293-2.54-2.54c.524-.79.833-1.735.833-2.753 0-2.757-2.243-5-5-5s-5 2.243-5 5 2.243 5 5 5c1.018 0 1.962-.309 2.753-.833l2.54 2.54c.391.391 1.023.391 1.414 0s.391-1.023 0-1.414zm-6.707-2.293c-1.654 0-3-1.346-3-3s1.346-3 3-3 3 1.346 3 3-1.346 3-3 3z" fill="#ffc107"/><path d="m14.873 14.886c-.539.543-.873 1.29-.873 2.114 0 1.654 1.346 3 3 3 .824 0 1.571-.334 2.114-.873z" fill="#dedede"/><path d="m13.459 13.473c-.901.905-1.459 2.152-1.459 3.527 0 2.757 2.243 5 5 5 1.018 0 1.962-.309 2.753-.833l2.54 2.54c.195.195.451.293.707.293.253 0 .506-.095.7-.286l-4.587-4.587c-.542.539-1.289.873-2.113.873-1.654 0-3-1.346-3-3 0-.824.334-1.571.873-2.114z" fill="#dea806"/></svg>