<svg id="color" enable-background="new 0 0 24 24" height="512" viewBox="0 0 24 24" width="512" xmlns="http://www.w3.org/2000/svg"><path d="m10 0 10 4-10 4-10-4z" fill="#4caf50"/><path d="m0 4 10 4v12l-10-4z" fill="#81c784"/><path d="m10 20 10-4v-12l-10 4z" fill="#66bb6a"/><path d="m10 0-10 4 10 4z" fill="#429846"/><path d="m0 4v12l10 4v-12z" fill="#70ad73"/><path d="m17.5 11c-3.584 0-6.5 2.916-6.5 6.5s2.916 6.5 6.5 6.5 6.5-2.916 6.5-6.5-2.916-6.5-6.5-6.5z" fill="#2196f3"/><path d="m19.75 17h-1.25v4c0 .553-.447 1-1 1s-1-.447-1-1v-4h-1.25c-.648 0-.991-.771-.558-1.252l2.25-2.5c.143-.158.345-.248.558-.248s.415.09.558.248l2.25 2.5c.433.481.09 1.252-.558 1.252z" fill="#fff"/><path d="m17.5 11c-3.584 0-6.5 2.916-6.5 6.5s2.916 6.5 6.5 6.5v-2c-.553 0-1-.447-1-1v-4h-1.25c-.648 0-.991-.771-.558-1.252l2.25-2.5c.143-.158.345-.248.558-.248z" fill="#1d83d4"/><path d="m17.5 13c-.213 0-.415.09-.558.248l-2.25 2.5c-.433.481-.09 1.252.558 1.252h1.25v4c0 .553.447 1 1 1z" fill="#dedede"/></svg>